<mxfile host="app.diagrams.net" modified="2021-09-12T20:34:59.365Z" agent="5.0 (Windows NT 10.0; Win64; x64) AppleWebKit/537.36 (KHTML, like Gecko) Chrome/92.0.4515.131 Safari/537.36 OPR/78.0.4093.186" etag="TXx0XlLuQqA36penZYtw" version="15.1.4" type="github">
  <diagram id="cIjqUxK6Mfgk_T9a-IYu" name="Page-1">
    <mxGraphModel dx="1406" dy="840" grid="1" gridSize="10" guides="1" tooltips="1" connect="1" arrows="1" fold="1" page="1" pageScale="1" pageWidth="827" pageHeight="1169" math="0" shadow="0">
      <root>
        <mxCell id="0" />
        <mxCell id="1" parent="0" />
        <mxCell id="yO574xRiraTTL4wXwYLo-14" style="edgeStyle=orthogonalEdgeStyle;rounded=0;orthogonalLoop=1;jettySize=auto;html=1;strokeColor=#000000;entryX=0;entryY=0.5;entryDx=0;entryDy=0;" edge="1" parent="1" source="yO574xRiraTTL4wXwYLo-1" target="yO574xRiraTTL4wXwYLo-5">
          <mxGeometry relative="1" as="geometry">
            <mxPoint x="140" y="90" as="targetPoint" />
          </mxGeometry>
        </mxCell>
        <mxCell id="yO574xRiraTTL4wXwYLo-15" style="edgeStyle=orthogonalEdgeStyle;rounded=0;orthogonalLoop=1;jettySize=auto;html=1;exitX=0.5;exitY=0.5;exitDx=0;exitDy=0;exitPerimeter=0;strokeColor=#000000;" edge="1" parent="1" source="yO574xRiraTTL4wXwYLo-1">
          <mxGeometry relative="1" as="geometry">
            <mxPoint x="150" y="240" as="targetPoint" />
            <Array as="points">
              <mxPoint x="120" y="205" />
              <mxPoint x="120" y="240" />
            </Array>
          </mxGeometry>
        </mxCell>
        <mxCell id="yO574xRiraTTL4wXwYLo-22" style="edgeStyle=orthogonalEdgeStyle;rounded=0;orthogonalLoop=1;jettySize=auto;html=1;strokeColor=#000000;" edge="1" parent="1" target="yO574xRiraTTL4wXwYLo-20">
          <mxGeometry relative="1" as="geometry">
            <mxPoint x="60" y="260" as="sourcePoint" />
          </mxGeometry>
        </mxCell>
        <mxCell id="yO574xRiraTTL4wXwYLo-1" value="Secretária&lt;br&gt;" style="shape=umlActor;verticalLabelPosition=bottom;verticalAlign=top;html=1;outlineConnect=0;" vertex="1" parent="1">
          <mxGeometry x="40" y="170" width="40" height="70" as="geometry" />
        </mxCell>
        <mxCell id="yO574xRiraTTL4wXwYLo-2" value="Cadastrar turmas" style="ellipse;whiteSpace=wrap;html=1;" vertex="1" parent="1">
          <mxGeometry x="160" y="200" width="120" height="80" as="geometry" />
        </mxCell>
        <mxCell id="yO574xRiraTTL4wXwYLo-76" style="edgeStyle=orthogonalEdgeStyle;rounded=0;orthogonalLoop=1;jettySize=auto;html=1;entryX=1;entryY=0.5;entryDx=0;entryDy=0;strokeColor=#000000;startArrow=none;" edge="1" parent="1" source="yO574xRiraTTL4wXwYLo-62" target="yO574xRiraTTL4wXwYLo-5">
          <mxGeometry relative="1" as="geometry" />
        </mxCell>
        <mxCell id="yO574xRiraTTL4wXwYLo-3" value="Alterar turmas&lt;br&gt;" style="ellipse;whiteSpace=wrap;html=1;" vertex="1" parent="1">
          <mxGeometry x="400" y="40" width="120" height="80" as="geometry" />
        </mxCell>
        <mxCell id="yO574xRiraTTL4wXwYLo-77" style="edgeStyle=orthogonalEdgeStyle;rounded=0;orthogonalLoop=1;jettySize=auto;html=1;entryX=1;entryY=0.5;entryDx=0;entryDy=0;strokeColor=#000000;startArrow=none;" edge="1" parent="1" source="yO574xRiraTTL4wXwYLo-62" target="yO574xRiraTTL4wXwYLo-5">
          <mxGeometry relative="1" as="geometry" />
        </mxCell>
        <mxCell id="yO574xRiraTTL4wXwYLo-4" value="Excluir turmas" style="ellipse;whiteSpace=wrap;html=1;" vertex="1" parent="1">
          <mxGeometry x="400" y="120" width="120" height="80" as="geometry" />
        </mxCell>
        <mxCell id="yO574xRiraTTL4wXwYLo-5" value="Pesquisar turma" style="ellipse;whiteSpace=wrap;html=1;" vertex="1" parent="1">
          <mxGeometry x="160" y="80" width="120" height="80" as="geometry" />
        </mxCell>
        <mxCell id="yO574xRiraTTL4wXwYLo-23" style="edgeStyle=orthogonalEdgeStyle;rounded=0;orthogonalLoop=1;jettySize=auto;html=1;entryX=1;entryY=0.5;entryDx=0;entryDy=0;strokeColor=#000000;startArrow=none;" edge="1" parent="1" source="yO574xRiraTTL4wXwYLo-27" target="yO574xRiraTTL4wXwYLo-20">
          <mxGeometry relative="1" as="geometry">
            <Array as="points">
              <mxPoint x="140" y="320" />
              <mxPoint x="140" y="360" />
            </Array>
          </mxGeometry>
        </mxCell>
        <mxCell id="yO574xRiraTTL4wXwYLo-31" value="" style="edgeStyle=orthogonalEdgeStyle;rounded=0;orthogonalLoop=1;jettySize=auto;html=1;strokeColor=#000000;startArrow=none;" edge="1" parent="1" source="yO574xRiraTTL4wXwYLo-33" target="yO574xRiraTTL4wXwYLo-30">
          <mxGeometry relative="1" as="geometry" />
        </mxCell>
        <mxCell id="yO574xRiraTTL4wXwYLo-18" value="Cadastrar novo aluno" style="ellipse;whiteSpace=wrap;html=1;" vertex="1" parent="1">
          <mxGeometry x="260" y="280" width="120" height="80" as="geometry" />
        </mxCell>
        <mxCell id="yO574xRiraTTL4wXwYLo-24" style="edgeStyle=orthogonalEdgeStyle;rounded=0;orthogonalLoop=1;jettySize=auto;html=1;strokeColor=#000000;startArrow=none;" edge="1" parent="1" source="yO574xRiraTTL4wXwYLo-25" target="yO574xRiraTTL4wXwYLo-20">
          <mxGeometry relative="1" as="geometry">
            <Array as="points">
              <mxPoint x="140" y="400" />
              <mxPoint x="140" y="360" />
            </Array>
          </mxGeometry>
        </mxCell>
        <mxCell id="yO574xRiraTTL4wXwYLo-32" value="" style="edgeStyle=orthogonalEdgeStyle;rounded=0;orthogonalLoop=1;jettySize=auto;html=1;strokeColor=#000000;startArrow=none;" edge="1" parent="1" source="yO574xRiraTTL4wXwYLo-33" target="yO574xRiraTTL4wXwYLo-30">
          <mxGeometry relative="1" as="geometry" />
        </mxCell>
        <mxCell id="yO574xRiraTTL4wXwYLo-19" value="Escolher&amp;nbsp;aluno cadastrado" style="ellipse;whiteSpace=wrap;html=1;" vertex="1" parent="1">
          <mxGeometry x="260" y="360" width="120" height="80" as="geometry" />
        </mxCell>
        <mxCell id="yO574xRiraTTL4wXwYLo-20" value="Solicitar matrícula" style="ellipse;whiteSpace=wrap;html=1;" vertex="1" parent="1">
          <mxGeometry y="320" width="120" height="80" as="geometry" />
        </mxCell>
        <mxCell id="yO574xRiraTTL4wXwYLo-27" value="extend" style="text;html=1;align=center;verticalAlign=middle;resizable=0;points=[];autosize=1;strokeColor=none;fillColor=none;" vertex="1" parent="1">
          <mxGeometry x="160" y="310" width="50" height="20" as="geometry" />
        </mxCell>
        <mxCell id="yO574xRiraTTL4wXwYLo-28" value="" style="edgeStyle=orthogonalEdgeStyle;rounded=0;orthogonalLoop=1;jettySize=auto;html=1;entryX=1;entryY=0.5;entryDx=0;entryDy=0;strokeColor=#000000;endArrow=none;" edge="1" parent="1" source="yO574xRiraTTL4wXwYLo-18" target="yO574xRiraTTL4wXwYLo-27">
          <mxGeometry relative="1" as="geometry">
            <mxPoint x="260" y="320" as="sourcePoint" />
            <mxPoint x="120" y="360" as="targetPoint" />
          </mxGeometry>
        </mxCell>
        <mxCell id="yO574xRiraTTL4wXwYLo-25" value="extend" style="text;html=1;align=center;verticalAlign=middle;resizable=0;points=[];autosize=1;strokeColor=none;fillColor=none;" vertex="1" parent="1">
          <mxGeometry x="165" y="390" width="50" height="20" as="geometry" />
        </mxCell>
        <mxCell id="yO574xRiraTTL4wXwYLo-29" value="" style="edgeStyle=orthogonalEdgeStyle;rounded=0;orthogonalLoop=1;jettySize=auto;html=1;strokeColor=#000000;endArrow=none;" edge="1" parent="1" source="yO574xRiraTTL4wXwYLo-19" target="yO574xRiraTTL4wXwYLo-25">
          <mxGeometry relative="1" as="geometry">
            <mxPoint x="260" y="400" as="sourcePoint" />
            <mxPoint x="120" y="360" as="targetPoint" />
          </mxGeometry>
        </mxCell>
        <mxCell id="yO574xRiraTTL4wXwYLo-40" value="" style="edgeStyle=orthogonalEdgeStyle;rounded=0;orthogonalLoop=1;jettySize=auto;html=1;strokeColor=#000000;startArrow=none;" edge="1" parent="1" source="yO574xRiraTTL4wXwYLo-41" target="yO574xRiraTTL4wXwYLo-39">
          <mxGeometry relative="1" as="geometry" />
        </mxCell>
        <mxCell id="yO574xRiraTTL4wXwYLo-30" value="Matricular aluno" style="ellipse;whiteSpace=wrap;html=1;" vertex="1" parent="1">
          <mxGeometry x="490" y="320" width="120" height="80" as="geometry" />
        </mxCell>
        <mxCell id="yO574xRiraTTL4wXwYLo-34" value="" style="edgeStyle=orthogonalEdgeStyle;rounded=0;orthogonalLoop=1;jettySize=auto;html=1;strokeColor=#000000;endArrow=none;" edge="1" parent="1" source="yO574xRiraTTL4wXwYLo-19" target="yO574xRiraTTL4wXwYLo-33">
          <mxGeometry relative="1" as="geometry">
            <mxPoint x="380" y="400" as="sourcePoint" />
            <mxPoint x="500" y="360" as="targetPoint" />
          </mxGeometry>
        </mxCell>
        <mxCell id="yO574xRiraTTL4wXwYLo-33" value="include" style="text;html=1;align=center;verticalAlign=middle;resizable=0;points=[];autosize=1;strokeColor=none;fillColor=none;" vertex="1" parent="1">
          <mxGeometry x="414" y="350" width="50" height="20" as="geometry" />
        </mxCell>
        <mxCell id="yO574xRiraTTL4wXwYLo-35" value="" style="edgeStyle=orthogonalEdgeStyle;rounded=0;orthogonalLoop=1;jettySize=auto;html=1;strokeColor=#000000;endArrow=none;" edge="1" parent="1" source="yO574xRiraTTL4wXwYLo-18" target="yO574xRiraTTL4wXwYLo-33">
          <mxGeometry relative="1" as="geometry">
            <mxPoint x="380" y="320" as="sourcePoint" />
            <mxPoint x="500" y="360" as="targetPoint" />
          </mxGeometry>
        </mxCell>
        <mxCell id="yO574xRiraTTL4wXwYLo-38" style="edgeStyle=orthogonalEdgeStyle;rounded=0;orthogonalLoop=1;jettySize=auto;html=1;entryX=0;entryY=0.5;entryDx=0;entryDy=0;strokeColor=#000000;" edge="1" parent="1" source="yO574xRiraTTL4wXwYLo-36" target="yO574xRiraTTL4wXwYLo-37">
          <mxGeometry relative="1" as="geometry" />
        </mxCell>
        <mxCell id="yO574xRiraTTL4wXwYLo-80" style="edgeStyle=orthogonalEdgeStyle;rounded=0;orthogonalLoop=1;jettySize=auto;html=1;entryX=0.5;entryY=0;entryDx=0;entryDy=0;strokeColor=#000000;" edge="1" parent="1" target="yO574xRiraTTL4wXwYLo-68">
          <mxGeometry relative="1" as="geometry">
            <mxPoint x="100" y="630" as="sourcePoint" />
            <Array as="points" />
          </mxGeometry>
        </mxCell>
        <mxCell id="yO574xRiraTTL4wXwYLo-36" value="Professor" style="shape=umlActor;verticalLabelPosition=bottom;verticalAlign=top;html=1;outlineConnect=0;" vertex="1" parent="1">
          <mxGeometry x="80" y="525" width="40" height="70" as="geometry" />
        </mxCell>
        <mxCell id="yO574xRiraTTL4wXwYLo-37" value="Realizar chamada" style="ellipse;whiteSpace=wrap;html=1;" vertex="1" parent="1">
          <mxGeometry x="160" y="520" width="120" height="80" as="geometry" />
        </mxCell>
        <mxCell id="yO574xRiraTTL4wXwYLo-39" value="Gerar boleto" style="ellipse;whiteSpace=wrap;html=1;" vertex="1" parent="1">
          <mxGeometry x="707" y="320" width="120" height="80" as="geometry" />
        </mxCell>
        <mxCell id="yO574xRiraTTL4wXwYLo-41" value="include" style="text;html=1;align=center;verticalAlign=middle;resizable=0;points=[];autosize=1;strokeColor=none;fillColor=none;" vertex="1" parent="1">
          <mxGeometry x="640" y="350" width="50" height="20" as="geometry" />
        </mxCell>
        <mxCell id="yO574xRiraTTL4wXwYLo-42" value="" style="edgeStyle=orthogonalEdgeStyle;rounded=0;orthogonalLoop=1;jettySize=auto;html=1;strokeColor=#000000;endArrow=none;" edge="1" parent="1" source="yO574xRiraTTL4wXwYLo-30" target="yO574xRiraTTL4wXwYLo-41">
          <mxGeometry relative="1" as="geometry">
            <mxPoint x="620" y="360" as="sourcePoint" />
            <mxPoint x="700" y="360" as="targetPoint" />
          </mxGeometry>
        </mxCell>
        <mxCell id="yO574xRiraTTL4wXwYLo-53" value="" style="edgeStyle=orthogonalEdgeStyle;rounded=0;orthogonalLoop=1;jettySize=auto;html=1;strokeColor=#000000;startArrow=none;" edge="1" parent="1" source="yO574xRiraTTL4wXwYLo-47" target="yO574xRiraTTL4wXwYLo-37">
          <mxGeometry relative="1" as="geometry" />
        </mxCell>
        <mxCell id="yO574xRiraTTL4wXwYLo-48" value="Gerar relatório de presença" style="ellipse;whiteSpace=wrap;html=1;" vertex="1" parent="1">
          <mxGeometry x="380" y="520" width="120" height="80" as="geometry" />
        </mxCell>
        <mxCell id="yO574xRiraTTL4wXwYLo-47" value="extend" style="text;html=1;align=center;verticalAlign=middle;resizable=0;points=[];autosize=1;strokeColor=none;fillColor=none;" vertex="1" parent="1">
          <mxGeometry x="300" y="550" width="50" height="20" as="geometry" />
        </mxCell>
        <mxCell id="yO574xRiraTTL4wXwYLo-54" value="" style="edgeStyle=orthogonalEdgeStyle;rounded=0;orthogonalLoop=1;jettySize=auto;html=1;strokeColor=#000000;endArrow=none;" edge="1" parent="1" source="yO574xRiraTTL4wXwYLo-48" target="yO574xRiraTTL4wXwYLo-47">
          <mxGeometry relative="1" as="geometry">
            <mxPoint x="360" y="560" as="sourcePoint" />
            <mxPoint x="280" y="560" as="targetPoint" />
          </mxGeometry>
        </mxCell>
        <mxCell id="yO574xRiraTTL4wXwYLo-73" value="" style="edgeStyle=orthogonalEdgeStyle;rounded=0;orthogonalLoop=1;jettySize=auto;html=1;strokeColor=#000000;startArrow=none;" edge="1" parent="1" source="yO574xRiraTTL4wXwYLo-71" target="yO574xRiraTTL4wXwYLo-68">
          <mxGeometry relative="1" as="geometry" />
        </mxCell>
        <mxCell id="yO574xRiraTTL4wXwYLo-56" value="Salvar registro" style="ellipse;whiteSpace=wrap;html=1;" vertex="1" parent="1">
          <mxGeometry x="280" y="670" width="120" height="80" as="geometry" />
        </mxCell>
        <mxCell id="yO574xRiraTTL4wXwYLo-65" style="edgeStyle=orthogonalEdgeStyle;rounded=0;orthogonalLoop=1;jettySize=auto;html=1;entryX=0;entryY=0.5;entryDx=0;entryDy=0;strokeColor=#000000;startArrow=none;" edge="1" parent="1" target="yO574xRiraTTL4wXwYLo-58">
          <mxGeometry relative="1" as="geometry">
            <mxPoint x="470" y="790" as="sourcePoint" />
            <Array as="points">
              <mxPoint x="480" y="790" />
              <mxPoint x="480" y="710" />
            </Array>
          </mxGeometry>
        </mxCell>
        <mxCell id="yO574xRiraTTL4wXwYLo-72" value="" style="edgeStyle=orthogonalEdgeStyle;rounded=0;orthogonalLoop=1;jettySize=auto;html=1;strokeColor=#000000;startArrow=none;" edge="1" parent="1" source="yO574xRiraTTL4wXwYLo-71" target="yO574xRiraTTL4wXwYLo-68">
          <mxGeometry relative="1" as="geometry" />
        </mxCell>
        <mxCell id="yO574xRiraTTL4wXwYLo-57" value="Fechar turma" style="ellipse;whiteSpace=wrap;html=1;" vertex="1" parent="1">
          <mxGeometry x="280" y="750" width="120" height="80" as="geometry" />
        </mxCell>
        <mxCell id="yO574xRiraTTL4wXwYLo-58" value="Gerar relatório de aprovações" style="ellipse;whiteSpace=wrap;html=1;" vertex="1" parent="1">
          <mxGeometry x="520" y="670" width="120" height="80" as="geometry" />
        </mxCell>
        <mxCell id="yO574xRiraTTL4wXwYLo-66" value="include" style="text;html=1;align=center;verticalAlign=middle;resizable=0;points=[];autosize=1;strokeColor=none;fillColor=none;" vertex="1" parent="1">
          <mxGeometry x="414" y="780" width="50" height="20" as="geometry" />
        </mxCell>
        <mxCell id="yO574xRiraTTL4wXwYLo-67" value="" style="edgeStyle=orthogonalEdgeStyle;rounded=0;orthogonalLoop=1;jettySize=auto;html=1;strokeColor=#000000;endArrow=none;entryX=0;entryY=0.507;entryDx=0;entryDy=0;entryPerimeter=0;" edge="1" parent="1" source="yO574xRiraTTL4wXwYLo-57" target="yO574xRiraTTL4wXwYLo-66">
          <mxGeometry relative="1" as="geometry">
            <mxPoint x="400" y="790" as="sourcePoint" />
            <mxPoint x="480" y="710" as="targetPoint" />
            <Array as="points">
              <mxPoint x="414" y="790" />
            </Array>
          </mxGeometry>
        </mxCell>
        <mxCell id="yO574xRiraTTL4wXwYLo-68" value="Registrar aprovação" style="ellipse;whiteSpace=wrap;html=1;" vertex="1" parent="1">
          <mxGeometry x="30" y="710" width="120" height="80" as="geometry" />
        </mxCell>
        <mxCell id="yO574xRiraTTL4wXwYLo-74" value="" style="edgeStyle=orthogonalEdgeStyle;rounded=0;orthogonalLoop=1;jettySize=auto;html=1;strokeColor=#000000;endArrow=none;" edge="1" parent="1" source="yO574xRiraTTL4wXwYLo-56" target="yO574xRiraTTL4wXwYLo-71">
          <mxGeometry relative="1" as="geometry">
            <mxPoint x="280" y="710" as="sourcePoint" />
            <mxPoint x="140" y="750" as="targetPoint" />
          </mxGeometry>
        </mxCell>
        <mxCell id="yO574xRiraTTL4wXwYLo-71" value="extend" style="text;html=1;align=center;verticalAlign=middle;resizable=0;points=[];autosize=1;strokeColor=none;fillColor=none;" vertex="1" parent="1">
          <mxGeometry x="180" y="740" width="50" height="20" as="geometry" />
        </mxCell>
        <mxCell id="yO574xRiraTTL4wXwYLo-75" value="" style="edgeStyle=orthogonalEdgeStyle;rounded=0;orthogonalLoop=1;jettySize=auto;html=1;strokeColor=#000000;endArrow=none;" edge="1" parent="1" source="yO574xRiraTTL4wXwYLo-57" target="yO574xRiraTTL4wXwYLo-71">
          <mxGeometry relative="1" as="geometry">
            <mxPoint x="280" y="790" as="sourcePoint" />
            <mxPoint x="140" y="750" as="targetPoint" />
          </mxGeometry>
        </mxCell>
        <mxCell id="yO574xRiraTTL4wXwYLo-78" value="" style="edgeStyle=orthogonalEdgeStyle;rounded=0;orthogonalLoop=1;jettySize=auto;html=1;entryX=1;entryY=0.5;entryDx=0;entryDy=0;strokeColor=#000000;endArrow=none;" edge="1" parent="1" source="yO574xRiraTTL4wXwYLo-4" target="yO574xRiraTTL4wXwYLo-62">
          <mxGeometry relative="1" as="geometry">
            <mxPoint x="400" y="160" as="sourcePoint" />
            <mxPoint x="280" y="120" as="targetPoint" />
          </mxGeometry>
        </mxCell>
        <mxCell id="yO574xRiraTTL4wXwYLo-62" value="extend" style="text;html=1;align=center;verticalAlign=middle;resizable=0;points=[];autosize=1;strokeColor=none;fillColor=none;" vertex="1" parent="1">
          <mxGeometry x="310" y="110" width="50" height="20" as="geometry" />
        </mxCell>
        <mxCell id="yO574xRiraTTL4wXwYLo-79" value="" style="edgeStyle=orthogonalEdgeStyle;rounded=0;orthogonalLoop=1;jettySize=auto;html=1;entryX=1;entryY=0.5;entryDx=0;entryDy=0;strokeColor=#000000;endArrow=none;" edge="1" parent="1" source="yO574xRiraTTL4wXwYLo-3" target="yO574xRiraTTL4wXwYLo-62">
          <mxGeometry relative="1" as="geometry">
            <mxPoint x="400" y="80" as="sourcePoint" />
            <mxPoint x="280" y="120" as="targetPoint" />
          </mxGeometry>
        </mxCell>
      </root>
    </mxGraphModel>
  </diagram>
</mxfile>
